{"nodes":{"A1":{"alts":["A3","two","three","pre_buzz"],"bpm":90,"defaults":["A2"],"tracks":["the_call"]},"A2":{"alts":["A3","pre_buzz"],"bpm":90,"defaults":["A1"],"tracks":["the_call","the_call_s"]},"A3":{"alts":["A5","pre_buzz"],"bpm":90,"defaults":["A4"],"tracks":["the_call","the_call_g"]},"A4":{"alts":["A5","pre_buzz"],"bpm":90,"defaults":["A4"],"tracks":["the_call","the_call_g","the_call_p"]},"A5":{"alts":["pre_main"],"bpm":90,"defaults":["A5"],"tracks":["the_call","the_call_p","the_call_end","the_call_bass"]},"B1":{"alts":["B3","one","two","pre_buzz"],"bpm":75,"defaults":["B2"],"tracks":["g_glide","g_piano"]},"B2":{"alts":["B3","pre_buzz"],"bpm":120,"defaults":["B1"],"tracks":["g_glide","g_piano"]},"B3":{"alts":["pre_main"],"bpm":75,"defaults":["B3"],"tracks":["g_glide","g_piano","B_guitar"]},"My1":{"alts":[],"bpm":90,"defaults":["My1B"],"tracks":["my_song1"]},"My1B":{"alts":["My2","one","pre_buzz"],"bpm":90,"defaults":["My1B"],"tracks":["my_song1","My_bass"]},"My2":{"alts":["My3","pre_buzz"],"bpm":90,"defaults":["My2"],"tracks":["my_song2","My_bass2"]},"My3":{"alts":["pre_main"],"bpm":90,"defaults":["My3"],"tracks":["my_song3","My_bass3"]},"buzz":{"alts":["buzz_end","post_buzz"],"bpm":85,"defaults":["buzz"],"tracks":["buzz","buzz_bass","snare_backbeat"]},"buzz_end":{"alts":["pre_main"],"bpm":85,"defaults":["buzz_end"],"tracks":["buzz","buzz_bass","snare_backbeat","buzz_end"]},"final1":{"alts":["pre_main"],"bpm":60,"defaults":["final1"],"tracks":["guitar_normal","guitar_solo","bass_final","happy_final"]},"final2":{"alts":["final1"],"bpm":60,"defaults":["final2"],"tracks":["guitar_normal","guitar_solo","bass_final"]},"four":{"alts":["My1","one","two"],"bpm":100,"defaults":["four"],"tracks":["g_glide","my_song2"]},"main":{"alts":["one","two","three","four"],"bpm":100,"defaults":["main"],"tracks":["main_pad","main_ep"]},"one":{"alts":["B1","My1","three","four"],"bpm":100,"defaults":["one"],"tracks":["main_pad","one_happy"]},"post_buzz":{"alts":[],"bpm":85,"defaults":["pre_final"],"tracks":["buzz_out","buzz_out2"]},"pre_buzz":{"alts":[],"bpm":85,"defaults":["buzz"],"tracks":["pre_buzz","buzz_bass"]},"pre_final":{"alts":["final2"],"bpm":60,"defaults":["pre_final"],"tracks":["guitar_normal"]},"pre_main":{"alts":[],"bpm":100,"defaults":["main"],"tracks":["main_pad"]},"three":{"alts":["B1","A1","one","two"],"bpm":100,"defaults":["three"],"tracks":["g_glide","one_happy","scale2"]},"two":{"alts":["A1","three","four"],"bpm":150,"defaults":["two"],"tracks":["main_pad","the_call"]}},"presets":{"bad_bells":[0.338583,0,0.385827,0.732283,1,1,0.535433,0.653543,0,0.070866,0.653543,0.574803,0.472441,1,0.330709,0,0,0,0,0,0,0.551181,0,0.220472,0.574803,0.228346,0.692913,0.716535,0.385827,0.291339,0.149606,0.440945],"basic_snare":[0.488189,0,1,0,0,0,0,0,0,0,0.362205,0,0.464567,1,0.748031,0,0,0,0,0,0,0,0,0,0,0,0,0,0.133858,0.204724,0.062992,0.023622],"bass":[0.488189,0.480315,0,0,0.826772,0.661417,0,0,0.102362,0.102362,0.732283,0.574803,0.559055,1,0.858268,0,0,0,0,0,0.448819,0.464567,0.267717,0.629921,0,0,0,0,0.385827,0.291339,0.149606,0.244094],"bass_boost":[0.330709,0.480315,0,0,0.826772,0.661417,0,0,0.102362,0.102362,0.732283,0.574803,0.559055,1,0.858268,0,0,0,0,0,0,0.653543,0,0.433071,0.598425,0,0.629921,0.614173,0.629921,0.787402,0.149606,0.511811],"bell_sfx":[0.488189,0,0,0,0,0,0.606299,0.503937,0,0.03937,0.149606,0.267717,0,0,0,0,0,0,0,0,0,0,0,0,0,0,0.393701,0.472441,0.188976,0.291339,0.11811,0.125984],"call":[0.488189,0.968504,0.551181,0.480315,0.425197,0.661417,0.496063,0.511811,0.102362,0.102362,0.322835,0.566929,0.559055,1,0.858268,0,0,0,0,0,0.551181,0.464567,0.787402,0,0.779528,0,0.519685,0.220472,0.385827,0.291339,0.149606,0.244094],"e_guitar":[0.488189,0,0,0,0.307087,0.661417,0,0,0,0.275591,0.141732,0.385827,0,0,0,0,0.204724,0.84252,0.88189,0.84252,0,0.188976,0,0.275591,0,0.267717,0,0,0.385827,0.291339,0.149606,0.425197],"e_piano":[0.488189,0,0,0,0.307087,0.661417,0,0,0,0.007874,0.307087,0.574803,0,0,0,0,0,0,0,0,0,0,0,0,0,0,0,0,0.385827,0.291339,0.149606,0.07874],"evil_buzz":[0.440945,0.771654,0.771654,0.661417,0.566929,1,0.755906,0.283465,0,0.362205,0.244094,0.503937,0.425197,1,0.590551,0,0.377953,0.937008,0.866142,0.724409,0,0.023622,0,0,0.677165,0.299213,0.417323,0.637795,0.661417,0.692913,0.425197,0.19685],"glide_pad":[0.338583,0.385827,0,0.314961,1,1,0,0,0.598425,0.811024,0.96063,0.653543,0.472441,1,0.330709,0,0,0,0,0,0.527559,0.551181,0.551181,0.220472,0.574803,0.228346,0.692913,0.716535,0.385827,0.291339,0.149606,0.440945],"glide_pad2":[0.488189,0,0.417323,0.409449,0.338583,0.779528,0.818898,0.409449,0.330709,0.566929,0.818898,0.401575,0.244094,1,0.913386,0,0,0,0,0,0.212598,0,0.425197,0,0,0,0,0,0.385827,0.291339,0.149606,0.330709],"happy":[0.488189,0.480315,0.448819,0.440945,0.826772,0.661417,0,0,0.102362,0.102362,0.244094,0.574803,0.559055,1,0.858268,0,0,0,0,0,0.448819,0.464567,0.267717,0.629921,0,0,0,0,0.385827,0.291339,0.149606,0.244094],"snare_rev":[0.488189,0,1,0,0,0,0,0,0,0,0.362205,0,0.464567,1,0.748031,0,0.826772,0.80315,1,0.622047,0,0,0,0,0,0,0.795276,0.858268,0.637795,0.251969,0.559055,1]},"tracks":{"B_guitar":{"beats":8,"notes":[{"duration":0.069054,"isCC":false,"pitch":79,"start":0.02046,"velocity":85},{"duration":0.069054,"isCC":false,"pitch":78,"start":0.086957,"velocity":66},{"duration":0.069054,"isCC":false,"pitch":74,"start":0.14578,"velocity":80},{"duration":0.053708,"isCC":false,"pitch":71,"start":0.204604,"velocity":82},{"duration":0.058824,"isCC":false,"pitch":67,"start":0.255754,"velocity":107},{"duration":0.051151,"isCC":false,"pitch":71,"start":0.296675,"velocity":114},{"duration":0.053708,"isCC":false,"pitch":79,"start":0.342711,"velocity":87},{"duration":0.048593,"isCC":false,"pitch":78,"start":0.388747,"velocity":67},{"duration":0.040921,"isCC":false,"pitch":74,"start":0.424552,"velocity":77},{"duration":0.033248,"isCC":false,"pitch":71,"start":0.460358,"velocity":70},{"duration":0.046036,"isCC":false,"pitch":67,"start":0.488491,"velocity":67},{"duration":0.023018,"isCC":false,"pitch":71,"start":0.521739,"velocity":101},{"duration":0.043478,"isCC":false,"pitch":79,"start":0.544757,"velocity":68},{"duration":0.033248,"isCC":false,"pitch":78,"start":0.570332,"velocity":61},{"duration":0.033248,"isCC":false,"pitch":74,"start":0.59335,"velocity":88},{"duration":0.046036,"isCC":false,"pitch":91,"start":0.647059,"velocity":120},{"duration":0.033248,"isCC":false,"pitch":90,"start":0.675192,"velocity":68},{"duration":0.028133,"isCC":false,"pitch":86,"start":0.693095,"velocity":107},{"duration":0.023018,"isCC":false,"pitch":83,"start":0.70844,"velocity":73},{"duration":0.023018,"isCC":false,"pitch":79,"start":0.723785,"velocity":107},{"duration":0.025575,"isCC":false,"pitch":91,"start":0.741688,"velocity":94},{"duration":0.02046,"isCC":false,"pitch":90,"start":0.754476,"velocity":114},{"duration":0.025575,"isCC":false,"pitch":86,"start":0.764706,"velocity":88},{"duration":0.017903,"isCC":false,"pitch":83,"start":0.777494,"velocity":83},{"duration":0.023018,"isCC":false,"pitch":79,"start":0.785166,"velocity":114},{"duration":0.02046,"isCC":false,"pitch":91,"start":0.800512,"velocity":107},{"duration":0.015345,"isCC":false,"pitch":90,"start":0.808184,"velocity":127},{"duration":0.02046,"isCC":false,"pitch":86,"start":0.813299,"velocity":101},{"duration":0.02046,"isCC":false,"pitch":83,"start":0.826087,"velocity":82},{"duration":0.017903,"isCC":false,"pitch":79,"start":0.836317,"velocity":114},{"duration":0.02046,"isCC":false,"pitch":91,"start":0.838875,"velocity":85},{"duration":0.015345,"isCC":false,"pitch":90,"start":0.849105,"velocity":127},{"duration":0.017903,"isCC":false,"pitch":86,"start":0.85422,"velocity":107},{"duration":0.02046,"isCC":false,"pitch":83,"start":0.869565,"velocity":107},{"duration":0.02046,"isCC":false,"pitch":91,"start":0.882353,"velocity":120},{"duration":0.015345,"isCC":false,"pitch":90,"start":0.890026,"velocity":127},{"duration":0.023018,"isCC":false,"pitch":86,"start":0.892583,"velocity":107},{"duration":0.025575,"isCC":false,"pitch":83,"start":0.913043,"velocity":107},{"duration":0.02046,"isCC":false,"pitch":91,"start":0.925831,"velocity":120},{"duration":0.012788,"isCC":false,"pitch":90,"start":0.933504,"velocity":127},{"duration":0.017903,"isCC":false,"pitch":86,"start":0.938619,"velocity":114},{"duration":0.025575,"isCC":false,"pitch":83,"start":0.953964,"velocity":66},{"duration":0.025575,"isCC":false,"pitch":79,"start":0.953964,"velocity":87},{"duration":0.023018,"isCC":false,"pitch":91,"start":0.969309,"velocity":94},{"duration":0.017903,"isCC":false,"pitch":90,"start":0.976982,"velocity":127},{"duration":0.015345,"isCC":false,"pitch":86,"start":0.984655,"velocity":86}],"preset":"e_guitar"},"My_bass":{"beats":16,"notes":[{"duration":0.06305,"isCC":false,"pitch":31,"start":0.130499,"velocity":77},{"duration":0.064516,"isCC":false,"pitch":43,"start":0.131965,"velocity":73},{"duration":0.041056,"isCC":false,"pitch":42,"start":0.195015,"velocity":70},{"duration":0.045455,"isCC":false,"pitch":30,"start":0.192082,"velocity":76},{"duration":0.048387,"isCC":false,"pitch":31,"start":0.233138,"velocity":66},{"duration":0.048387,"isCC":false,"pitch":43,"start":0.234604,"velocity":71},{"duration":0.046921,"isCC":false,"pitch":45,"start":0.278592,"velocity":83},{"duration":0.05132,"isCC":false,"pitch":33,"start":0.277126,"velocity":67},{"duration":0.042522,"isCC":false,"pitch":47,"start":0.325513,"velocity":82},{"duration":0.045455,"isCC":false,"pitch":35,"start":0.325513,"velocity":78},{"duration":0.035191,"isCC":false,"pitch":33,"start":0.365103,"velocity":72},{"duration":0.033724,"isCC":false,"pitch":45,"start":0.366569,"velocity":72},{"duration":0.030792,"isCC":false,"pitch":31,"start":0.398827,"velocity":71},{"duration":0.036657,"isCC":false,"pitch":43,"start":0.395894,"velocity":77},{"duration":0.043988,"isCC":false,"pitch":30,"start":0.429619,"velocity":68},{"duration":0.042522,"isCC":false,"pitch":42,"start":0.432551,"velocity":67},{"duration":0.049853,"isCC":false,"pitch":31,"start":0.472141,"velocity":70},{"duration":0.05132,"isCC":false,"pitch":43,"start":0.473607,"velocity":65},{"duration":0.038123,"isCC":false,"pitch":42,"start":0.52346,"velocity":67},{"duration":0.042522,"isCC":false,"pitch":30,"start":0.520528,"velocity":72},{"duration":0.05132,"isCC":false,"pitch":43,"start":0.560117,"velocity":68},{"duration":0.052786,"isCC":false,"pitch":31,"start":0.558651,"velocity":55},{"duration":0.052786,"isCC":false,"pitch":45,"start":0.607038,"velocity":57},{"duration":0.055718,"isCC":false,"pitch":33,"start":0.605572,"velocity":31},{"duration":0.048387,"isCC":false,"pitch":47,"start":0.659824,"velocity":72},{"duration":0.054252,"isCC":false,"pitch":35,"start":0.656891,"velocity":52},{"duration":0.05132,"isCC":false,"pitch":45,"start":0.706745,"velocity":57},{"duration":0.052786,"isCC":false,"pitch":33,"start":0.705279,"velocity":70},{"duration":0.043988,"isCC":false,"pitch":31,"start":0.755132,"velocity":72},{"duration":0.046921,"isCC":false,"pitch":43,"start":0.755132,"velocity":62},{"duration":0.095308,"isCC":false,"pitch":42,"start":0.802053,"velocity":53},{"duration":0.099707,"isCC":false,"pitch":30,"start":0.797654,"velocity":62}],"preset":"bass"},"My_bass2":{"beats":16,"notes":[{"duration":0.376833,"isCC":false,"pitch":31,"start":0.215543,"velocity":78},{"duration":0.381232,"isCC":false,"pitch":43,"start":0.215543,"velocity":72},{"duration":0.274194,"isCC":false,"pitch":28,"start":0.592375,"velocity":75},{"duration":0.315249,"isCC":false,"pitch":40,"start":0.593842,"velocity":83}],"preset":"bass"},"My_bass3":{"beats":16,"notes":[{"duration":0.014663,"isCC":false,"pitch":26,"start":0.583578,"velocity":68},{"duration":0.016129,"isCC":false,"pitch":38,"start":0.583578,"velocity":81},{"duration":0.368035,"isCC":false,"pitch":26,"start":0.609971,"velocity":75},{"duration":0.368035,"isCC":false,"pitch":38,"start":0.611437,"velocity":85}],"preset":"bass"},"bass_final":{"beats":16,"notes":[{"duration":0.410959,"isCC":false,"pitch":38,"start":0.010763,"velocity":127},{"duration":0.574364,"isCC":false,"pitch":31,"start":0.402153,"velocity":127}],"preset":"bass"},"bass_part":{"beats":8,"notes":[{"duration":0.082317,"isCC":false,"pitch":31,"start":0.018293,"velocity":127},{"duration":0.064024,"isCC":false,"pitch":43,"start":0.079268,"velocity":127},{"duration":0.060976,"isCC":false,"pitch":45,"start":0.137195,"velocity":120},{"duration":0.073171,"isCC":false,"pitch":31,"start":0.137195,"velocity":127},{"duration":0.073171,"isCC":false,"pitch":47,"start":0.198171,"velocity":127},{"duration":0.064024,"isCC":false,"pitch":31,"start":0.265244,"velocity":127},{"duration":0.060976,"isCC":false,"pitch":45,"start":0.268293,"velocity":127},{"duration":0.070122,"isCC":false,"pitch":43,"start":0.323171,"velocity":127},{"duration":0.067073,"isCC":false,"pitch":42,"start":0.384146,"velocity":127},{"duration":0.067073,"isCC":false,"pitch":31,"start":0.387195,"velocity":127},{"duration":0.060976,"isCC":false,"pitch":43,"start":0.45122,"velocity":127},{"duration":0.067073,"isCC":false,"pitch":31,"start":0.512195,"velocity":127},{"duration":0.070122,"isCC":false,"pitch":43,"start":0.573171,"velocity":127},{"duration":0.064024,"isCC":false,"pitch":45,"start":0.637195,"velocity":120},{"duration":0.070122,"isCC":false,"pitch":31,"start":0.634146,"velocity":127},{"duration":0.073171,"isCC":false,"pitch":47,"start":0.695122,"velocity":120},{"duration":0.067073,"isCC":false,"pitch":45,"start":0.762195,"velocity":127},{"duration":0.070122,"isCC":false,"pitch":31,"start":0.762195,"velocity":127},{"duration":0.07622,"isCC":false,"pitch":43,"start":0.820122,"velocity":127},{"duration":0.064024,"isCC":false,"pitch":42,"start":0.884146,"velocity":127},{"duration":0.070122,"isCC":false,"pitch":31,"start":0.887195,"velocity":127},{"duration":0.051829,"isCC":false,"pitch":43,"start":0.948171,"velocity":114}],"preset":"bass"},"bells_part":{"beats":8,"notes":[{"duration":0.058172,"isCC":false,"pitch":55,"start":0.01108,"velocity":85},{"duration":0.049861,"isCC":false,"pitch":59,"start":0.052632,"velocity":82},{"duration":0.041551,"isCC":false,"pitch":62,"start":0.094183,"velocity":65},{"duration":0.052632,"isCC":false,"pitch":66,"start":0.135734,"velocity":36},{"duration":0.041551,"isCC":false,"pitch":62,"start":0.171745,"velocity":73},{"duration":0.052632,"isCC":false,"pitch":59,"start":0.213296,"velocity":65},{"duration":0.047091,"isCC":false,"pitch":66,"start":0.252078,"velocity":60},{"duration":0.049861,"isCC":false,"pitch":67,"start":0.285319,"velocity":82},{"duration":0.047091,"isCC":false,"pitch":66,"start":0.3241,"velocity":87},{"duration":0.036011,"isCC":false,"pitch":62,"start":0.360111,"velocity":78},{"duration":0.041551,"isCC":false,"pitch":59,"start":0.390582,"velocity":65},{"duration":0.044321,"isCC":false,"pitch":55,"start":0.423823,"velocity":82},{"duration":0.038781,"isCC":false,"pitch":59,"start":0.459834,"velocity":81},{"duration":0.052632,"isCC":false,"pitch":62,"start":0.487535,"velocity":67},{"duration":0.038781,"isCC":false,"pitch":66,"start":0.523546,"velocity":70},{"duration":0.041551,"isCC":false,"pitch":67,"start":0.551247,"velocity":86},{"duration":0.058172,"isCC":false,"pitch":55,"start":0.584488,"velocity":68},{"duration":0.052632,"isCC":false,"pitch":59,"start":0.620499,"velocity":72},{"duration":0.060942,"isCC":false,"pitch":62,"start":0.65651,"velocity":62},{"duration":0.044321,"isCC":false,"pitch":66,"start":0.695291,"velocity":73},{"duration":0.049861,"isCC":false,"pitch":67,"start":0.731302,"velocity":51},{"duration":0.036011,"isCC":false,"pitch":66,"start":0.778393,"velocity":61},{"duration":0.041551,"isCC":false,"pitch":62,"start":0.800554,"velocity":88},{"duration":0.055402,"isCC":false,"pitch":55,"start":0.831025,"velocity":68},{"duration":0.041551,"isCC":false,"pitch":59,"start":0.869806,"velocity":58},{"duration":0.052632,"isCC":false,"pitch":62,"start":0.891967,"velocity":71},{"duration":0.047091,"isCC":false,"pitch":66,"start":0.930748,"velocity":21}],"preset":"bad_bells"},"buzz":{"beats":8,"notes":[{"duration":0.06686,"isCC":false,"pitch":55,"start":0.040698,"velocity":120},{"duration":0.052326,"isCC":false,"pitch":58,"start":0.101744,"velocity":60},{"duration":0.052326,"isCC":false,"pitch":62,"start":0.159884,"velocity":60},{"duration":0.037791,"isCC":false,"pitch":66,"start":0.218023,"velocity":48},{"duration":0.049419,"isCC":false,"pitch":67,"start":0.267442,"velocity":73},{"duration":0.055233,"isCC":false,"pitch":66,"start":0.319767,"velocity":57},{"duration":0.02907,"isCC":false,"pitch":62,"start":0.372093,"velocity":70},{"duration":0.040698,"isCC":false,"pitch":58,"start":0.401163,"velocity":33},{"duration":0.052326,"isCC":false,"pitch":55,"start":0.438953,"velocity":73},{"duration":0.043605,"isCC":false,"pitch":58,"start":0.473837,"velocity":56},{"duration":0.072674,"isCC":false,"pitch":62,"start":0.517442,"velocity":43},{"duration":0.06686,"isCC":false,"pitch":66,"start":0.584302,"velocity":48},{"duration":0.063953,"isCC":false,"pitch":67,"start":0.65407,"velocity":63},{"duration":0.049419,"isCC":false,"pitch":66,"start":0.715116,"velocity":57},{"duration":0.040698,"isCC":false,"pitch":62,"start":0.75,"velocity":51},{"duration":0.043605,"isCC":false,"pitch":58,"start":0.787791,"velocity":53},{"duration":0.072674,"isCC":false,"pitch":55,"start":0.822674,"velocity":88},{"duration":0.069767,"isCC":false,"pitch":58,"start":0.872093,"velocity":36},{"duration":0.05814,"isCC":false,"pitch":62,"start":0.94186,"velocity":57}],"preset":"evil_buzz"},"buzz_bass":{"beats":8,"notes":[{"duration":0.921466,"isCC":false,"pitch":26,"start":0.018325,"velocity":127},{"duration":0.481675,"isCC":false,"pitch":31,"start":0.463351,"velocity":127}],"preset":"bass_boost"},"buzz_end":{"beats":8,"notes":[{"duration":0.075916,"isCC":false,"pitch":79,"start":0.068063,"velocity":120},{"duration":0.065445,"isCC":false,"pitch":78,"start":0.141361,"velocity":86},{"duration":0.054974,"isCC":false,"pitch":79,"start":0.209424,"velocity":85},{"duration":0.026178,"isCC":false,"pitch":81,"start":0.280105,"velocity":120},{"duration":0.062827,"isCC":false,"pitch":82,"start":0.337696,"velocity":127},{"duration":0.041885,"isCC":false,"pitch":81,"start":0.403141,"velocity":120},{"duration":0.052356,"isCC":false,"pitch":79,"start":0.465969,"velocity":120},{"duration":0.049738,"isCC":false,"pitch":78,"start":0.515707,"velocity":120},{"duration":0.041885,"isCC":false,"pitch":79,"start":0.568063,"velocity":94},{"duration":0.044503,"isCC":false,"pitch":78,"start":0.609948,"velocity":114},{"duration":0.028796,"isCC":false,"pitch":79,"start":0.649215,"velocity":83},{"duration":0.020942,"isCC":false,"pitch":81,"start":0.696335,"velocity":107},{"duration":0.026178,"isCC":false,"pitch":82,"start":0.73822,"velocity":114},{"duration":0.028796,"isCC":false,"pitch":81,"start":0.790576,"velocity":67},{"duration":0.057592,"isCC":false,"pitch":79,"start":0.832461,"velocity":53},{"duration":0.054974,"isCC":false,"pitch":78,"start":0.89267,"velocity":41}],"preset":"bad_bells"},"buzz_out":{"beats":16,"notes":[{"duration":0.061475,"isCC":false,"pitch":43,"start":0.142418,"velocity":77},{"duration":0.056352,"isCC":false,"pitch":47,"start":0.192623,"velocity":61},{"duration":0.052254,"isCC":false,"pitch":50,"start":0.241803,"velocity":63},{"duration":0.031762,"isCC":false,"pitch":54,"start":0.289959,"velocity":83},{"duration":0.033811,"isCC":false,"pitch":55,"start":0.327869,"velocity":81},{"duration":0.036885,"isCC":false,"pitch":59,"start":0.358607,"velocity":87},{"duration":0.043033,"isCC":false,"pitch":62,"start":0.389344,"velocity":78},{"duration":0.023566,"isCC":false,"pitch":78,"start":0.425205,"velocity":80},{"duration":0.030738,"isCC":false,"pitch":67,"start":0.449795,"velocity":94},{"duration":0.025615,"isCC":false,"pitch":71,"start":0.47541,"velocity":94},{"duration":0.028689,"isCC":false,"pitch":74,"start":0.496926,"velocity":78},{"duration":0.019467,"isCC":false,"pitch":78,"start":0.517418,"velocity":71},{"duration":0.017418,"isCC":false,"pitch":79,"start":0.542008,"velocity":94},{"duration":0.02459,"isCC":false,"pitch":83,"start":0.556352,"velocity":58},{"duration":0.020492,"isCC":false,"pitch":86,"start":0.57582,"velocity":80},{"duration":0.015369,"isCC":false,"pitch":90,"start":0.589139,"velocity":71},{"duration":0.017418,"isCC":false,"pitch":91,"start":0.609631,"velocity":88},{"duration":0.018443,"isCC":false,"pitch":95,"start":0.622951,"velocity":85},{"duration":0.019467,"isCC":false,"pitch":98,"start":0.635246,"velocity":75},{"duration":0.014344,"isCC":false,"pitch":102,"start":0.650615,"velocity":70},{"duration":0.016393,"isCC":false,"pitch":103,"start":0.673156,"velocity":94},{"duration":0.020492,"isCC":false,"pitch":107,"start":0.685451,"velocity":78},{"duration":0.020492,"isCC":false,"pitch":110,"start":0.699795,"velocity":63},{"duration":0.030738,"isCC":false,"pitch":114,"start":0.719262,"velocity":72},{"duration":0.023566,"isCC":false,"pitch":110,"start":0.746926,"velocity":67},{"duration":0.022541,"isCC":false,"pitch":107,"start":0.765369,"velocity":82},{"duration":0.012295,"isCC":false,"pitch":103,"start":0.777664,"velocity":62},{"duration":0.023566,"isCC":false,"pitch":102,"start":0.810451,"velocity":65},{"duration":0.019467,"isCC":false,"pitch":98,"start":0.82582,"velocity":67},{"duration":0.01332,"isCC":false,"pitch":95,"start":0.843238,"velocity":67},{"duration":0.018443,"isCC":false,"pitch":91,"start":0.841189,"velocity":60},{"duration":0.027664,"isCC":false,"pitch":102,"start":0.86373,"velocity":62},{"duration":0.019467,"isCC":false,"pitch":86,"start":0.880123,"velocity":68},{"duration":0.014344,"isCC":false,"pitch":83,"start":0.889344,"velocity":81},{"duration":0.016393,"isCC":false,"pitch":79,"start":0.896516,"velocity":45},{"duration":0.015369,"isCC":false,"pitch":78,"start":0.921107,"velocity":71},{"duration":0.017418,"isCC":false,"pitch":74,"start":0.927254,"velocity":80},{"duration":0.01127,"isCC":false,"pitch":71,"start":0.935451,"velocity":86},{"duration":0.014344,"isCC":false,"pitch":67,"start":0.9375,"velocity":83},{"duration":0.014344,"isCC":false,"pitch":66,"start":0.96209,"velocity":66},{"duration":0.017418,"isCC":false,"pitch":59,"start":0.970287,"velocity":72},{"duration":0.020492,"isCC":false,"pitch":62,"start":0.970287,"velocity":62},{"duration":0.018443,"isCC":false,"pitch":55,"start":0.980533,"velocity":80},{"duration":0.004098,"isCC":false,"pitch":66,"start":0.995902,"velocity":70}],"preset":"e_guitar"},"buzz_out2":{"beats":16,"notes":[{"duration":0.222707,"isCC":false,"pitch":31,"start":0.425036,"velocity":120},{"duration":0.344978,"isCC":false,"pitch":43,"start":0.655022,"velocity":86},{"duration":0.157205,"isCC":false,"pitch":50,"start":0.842795,"velocity":68}],"preset":"e_guitar"},"chords":{"beats":8,"notes":[{"duration":0.0875,"isCC":false,"pitch":60,"start":0.008333,"velocity":107},{"duration":0.091667,"isCC":false,"pitch":64,"start":0.008333,"velocity":107},{"duration":0.091667,"isCC":false,"pitch":67,"start":0.008333,"velocity":101},{"duration":0.079167,"isCC":false,"pitch":60,"start":0.1375,"velocity":87},{"duration":0.083333,"isCC":false,"pitch":67,"start":0.1375,"velocity":101},{"duration":0.083333,"isCC":false,"pitch":64,"start":0.1375,"velocity":101},{"duration":0.0375,"isCC":false,"pitch":65,"start":0.266667,"velocity":101},{"duration":0.0375,"isCC":false,"pitch":69,"start":0.266667,"velocity":101},{"duration":0.0375,"isCC":false,"pitch":62,"start":0.266667,"velocity":94},{"duration":0.075,"isCC":false,"pitch":62,"start":0.333333,"velocity":86},{"duration":0.075,"isCC":false,"pitch":69,"start":0.333333,"velocity":83},{"duration":0.075,"isCC":false,"pitch":65,"start":0.333333,"velocity":85},{"duration":0.075,"isCC":false,"pitch":71,"start":0.458333,"velocity":76},{"duration":0.079167,"isCC":false,"pitch":64,"start":0.454167,"velocity":88},{"duration":0.079167,"isCC":false,"pitch":67,"start":0.454167,"velocity":88},{"duration":0.066667,"isCC":false,"pitch":71,"start":0.575,"velocity":77},{"duration":0.075,"isCC":false,"pitch":67,"start":0.570833,"velocity":76},{"duration":0.070833,"isCC":false,"pitch":64,"start":0.575,"velocity":80},{"duration":0.033333,"isCC":false,"pitch":71,"start":0.7,"velocity":82},{"duration":0.033333,"isCC":false,"pitch":67,"start":0.7,"velocity":81},{"duration":0.0375,"isCC":false,"pitch":64,"start":0.695833,"velocity":75},{"duration":0.045833,"isCC":false,"pitch":67,"start":0.770833,"velocity":72},{"duration":0.070833,"isCC":false,"pitch":69,"start":0.770833,"velocity":86},{"duration":0.075,"isCC":false,"pitch":65,"start":0.766667,"velocity":107},{"duration":0.075,"isCC":false,"pitch":62,"start":0.766667,"velocity":107},{"duration":0.075,"isCC":false,"pitch":62,"start":0.8875,"velocity":80},{"duration":0.075,"isCC":false,"pitch":65,"start":0.8875,"velocity":75},{"duration":0.075,"isCC":false,"pitch":69,"start":0.8875,"velocity":76}],"preset":"e_piano"},"chords2":{"beats":8,"notes":[{"duration":0.0625,"isCC":false,"pitch":60,"start":0.029167,"velocity":88},{"duration":0.066667,"isCC":false,"pitch":64,"start":0.029167,"velocity":114},{"duration":0.066667,"isCC":false,"pitch":67,"start":0.029167,"velocity":87},{"duration":0.066667,"isCC":false,"pitch":64,"start":0.15,"velocity":127},{"duration":0.070833,"isCC":false,"pitch":67,"start":0.145833,"velocity":127},{"duration":0.075,"isCC":false,"pitch":71,"start":0.145833,"velocity":127},{"duration":0.104167,"isCC":false,"pitch":64,"start":0.2625,"velocity":107},{"duration":0.1125,"isCC":false,"pitch":71,"start":0.2625,"velocity":94},{"duration":0.116667,"isCC":false,"pitch":67,"start":0.2625,"velocity":114},{"duration":0.091667,"isCC":false,"pitch":65,"start":0.4875,"velocity":88},{"duration":0.095833,"isCC":false,"pitch":69,"start":0.4875,"velocity":88},{"duration":0.108333,"isCC":false,"pitch":60,"start":0.479167,"velocity":94},{"duration":0.1125,"isCC":false,"pitch":65,"start":0.775,"velocity":101},{"duration":0.1125,"isCC":false,"pitch":69,"start":0.775,"velocity":107},{"duration":0.116667,"isCC":false,"pitch":60,"start":0.775,"velocity":107}],"preset":"e_piano"},"g_glide":{"beats":8,"notes":[{"duration":0.038062,"isCC":false,"pitch":57,"start":0.010381,"velocity":86},{"duration":0.183391,"isCC":false,"pitch":55,"start":0.00692,"velocity":107},{"duration":0.079585,"isCC":false,"pitch":59,"start":0.121107,"velocity":68},{"duration":0.117647,"isCC":false,"pitch":62,"start":0.179931,"velocity":65},{"duration":0.058824,"isCC":false,"pitch":66,"start":0.249135,"velocity":37},{"duration":0.093426,"isCC":false,"pitch":67,"start":0.294118,"velocity":62},{"duration":0.072664,"isCC":false,"pitch":66,"start":0.366782,"velocity":70},{"duration":0.079585,"isCC":false,"pitch":62,"start":0.411765,"velocity":73},{"duration":0.107266,"isCC":false,"pitch":59,"start":0.456747,"velocity":77},{"duration":0.15917,"isCC":false,"pitch":55,"start":0.539792,"velocity":71},{"duration":0.062284,"isCC":false,"pitch":59,"start":0.647059,"velocity":67},{"duration":0.096886,"isCC":false,"pitch":67,"start":0.768166,"velocity":62},{"duration":0.17301,"isCC":false,"pitch":62,"start":0.709343,"velocity":70},{"duration":0.110727,"isCC":false,"pitch":66,"start":0.847751,"velocity":62},{"duration":0.065744,"isCC":false,"pitch":62,"start":0.934256,"velocity":81},{"duration":0.020761,"isCC":false,"pitch":59,"start":0.979239,"velocity":70}],"preset":"glide_pad"},"g_piano":{"beats":8,"notes":[{"duration":0.108173,"isCC":false,"pitch":55,"start":0.03125,"velocity":81},{"duration":0.076923,"isCC":false,"pitch":59,"start":0.100962,"velocity":80},{"duration":0.084135,"isCC":false,"pitch":62,"start":0.161058,"velocity":81},{"duration":0.060096,"isCC":false,"pitch":66,"start":0.228365,"velocity":61},{"duration":0.064904,"isCC":false,"pitch":67,"start":0.283654,"velocity":81},{"duration":0.064904,"isCC":false,"pitch":66,"start":0.334135,"velocity":75},{"duration":0.050481,"isCC":false,"pitch":62,"start":0.382212,"velocity":81},{"duration":0.048077,"isCC":false,"pitch":59,"start":0.418269,"velocity":55},{"duration":0.052885,"isCC":false,"pitch":55,"start":0.456731,"velocity":114},{"duration":0.040865,"isCC":false,"pitch":59,"start":0.492788,"velocity":72},{"duration":0.048077,"isCC":false,"pitch":62,"start":0.524038,"velocity":68},{"duration":0.033654,"isCC":false,"pitch":66,"start":0.557692,"velocity":67},{"duration":0.045673,"isCC":false,"pitch":67,"start":0.586538,"velocity":87},{"duration":0.036058,"isCC":false,"pitch":66,"start":0.615385,"velocity":81},{"duration":0.036058,"isCC":false,"pitch":62,"start":0.634615,"velocity":75},{"duration":0.033654,"isCC":false,"pitch":59,"start":0.658654,"velocity":61},{"duration":0.040865,"isCC":false,"pitch":55,"start":0.680288,"velocity":87},{"duration":0.045673,"isCC":false,"pitch":67,"start":0.711538,"velocity":94},{"duration":0.040865,"isCC":false,"pitch":66,"start":0.730769,"velocity":68},{"duration":0.03125,"isCC":false,"pitch":62,"start":0.757212,"velocity":78},{"duration":0.03125,"isCC":false,"pitch":59,"start":0.774038,"velocity":60},{"duration":0.036058,"isCC":false,"pitch":55,"start":0.795673,"velocity":107},{"duration":0.050481,"isCC":false,"pitch":67,"start":0.819712,"velocity":81},{"duration":0.045673,"isCC":false,"pitch":66,"start":0.846154,"velocity":77},{"duration":0.048077,"isCC":false,"pitch":62,"start":0.870192,"velocity":83},{"duration":0.091346,"isCC":false,"pitch":59,"start":0.896635,"velocity":66}],"preset":"e_piano"},"guitar_normal":{"beats":16,"notes":[{"duration":0.492828,"isCC":false,"pitch":61,"start":0.01127,"velocity":127},{"duration":0.495902,"isCC":false,"pitch":69,"start":0.01127,"velocity":127},{"duration":0.497951,"isCC":false,"pitch":66,"start":0.010246,"velocity":127},{"duration":0.497951,"isCC":false,"pitch":62,"start":0.010246,"velocity":127},{"duration":0.48668,"isCC":false,"pitch":62,"start":0.51332,"velocity":85},{"duration":0.485656,"isCC":false,"pitch":59,"start":0.514344,"velocity":107},{"duration":0.485656,"isCC":false,"pitch":67,"start":0.514344,"velocity":120},{"duration":0.485656,"isCC":false,"pitch":66,"start":0.514344,"velocity":83}],"preset":"e_guitar"},"guitar_solo":{"beats":16,"notes":[{"duration":0.023506,"isCC":false,"pitch":61,"start":0.01763,"velocity":127},{"duration":0.027424,"isCC":false,"pitch":64,"start":0.037218,"velocity":120},{"duration":0.019589,"isCC":false,"pitch":66,"start":0.059745,"velocity":94},{"duration":0.020568,"isCC":false,"pitch":69,"start":0.077375,"velocity":107},{"duration":0.01665,"isCC":false,"pitch":64,"start":0.095984,"velocity":114},{"duration":0.015671,"isCC":false,"pitch":66,"start":0.107738,"velocity":88},{"duration":0.007835,"isCC":false,"pitch":67,"start":0.136141,"velocity":120},{"duration":0.029383,"isCC":false,"pitch":69,"start":0.119491,"velocity":114},{"duration":0.013712,"isCC":false,"pitch":66,"start":0.146915,"velocity":127},{"duration":0.011753,"isCC":false,"pitch":69,"start":0.156709,"velocity":114},{"duration":0.012733,"isCC":false,"pitch":66,"start":0.166503,"velocity":94},{"duration":0.008815,"isCC":false,"pitch":73,"start":0.177277,"velocity":72},{"duration":0.011753,"isCC":false,"pitch":69,"start":0.186092,"velocity":120},{"duration":0.012733,"isCC":false,"pitch":74,"start":0.194907,"velocity":101},{"duration":0.009794,"isCC":false,"pitch":78,"start":0.20666,"velocity":127},{"duration":0.011753,"isCC":false,"pitch":73,"start":0.217434,"velocity":127},{"duration":0.013712,"isCC":false,"pitch":81,"start":0.227228,"velocity":85},{"duration":0.006856,"isCC":false,"pitch":78,"start":0.238981,"velocity":120},{"duration":0.014691,"isCC":false,"pitch":74,"start":0.248776,"velocity":127},{"duration":0.015671,"isCC":false,"pitch":73,"start":0.259549,"velocity":120},{"duration":0.013712,"isCC":false,"pitch":74,"start":0.270323,"velocity":120},{"duration":0.012733,"isCC":false,"pitch":78,"start":0.280118,"velocity":80},{"duration":0.029383,"isCC":false,"pitch":81,"start":0.290891,"velocity":94},{"duration":0.023506,"isCC":false,"pitch":74,"start":0.318315,"velocity":120},{"duration":0.012733,"isCC":false,"pitch":78,"start":0.337904,"velocity":72},{"duration":0.024486,"isCC":false,"pitch":81,"start":0.352595,"velocity":82},{"duration":0.022527,"isCC":false,"pitch":79,"start":0.371205,"velocity":78},{"duration":0.020568,"isCC":false,"pitch":74,"start":0.387855,"velocity":88},{"duration":0.019589,"isCC":false,"pitch":78,"start":0.406464,"velocity":65},{"duration":0.01665,"isCC":false,"pitch":74,"start":0.422135,"velocity":101},{"duration":0.01665,"isCC":false,"pitch":71,"start":0.434868,"velocity":78},{"duration":0.01763,"isCC":false,"pitch":67,"start":0.4476,"velocity":127},{"duration":0.013712,"isCC":false,"pitch":71,"start":0.460333,"velocity":120},{"duration":0.013712,"isCC":false,"pitch":74,"start":0.472086,"velocity":101},{"duration":0.012733,"isCC":false,"pitch":78,"start":0.48286,"velocity":120},{"duration":0.011753,"isCC":false,"pitch":74,"start":0.493634,"velocity":114},{"duration":0.013712,"isCC":false,"pitch":71,"start":0.502449,"velocity":101},{"duration":0.009794,"isCC":false,"pitch":67,"start":0.510284,"velocity":101},{"duration":0.012733,"isCC":false,"pitch":74,"start":0.519099,"velocity":86},{"duration":0.013712,"isCC":false,"pitch":78,"start":0.527914,"velocity":80},{"duration":0.013712,"isCC":false,"pitch":66,"start":0.538688,"velocity":101},{"duration":0.015671,"isCC":false,"pitch":67,"start":0.548482,"velocity":114},{"duration":0.013712,"isCC":false,"pitch":74,"start":0.558276,"velocity":94},{"duration":0.014691,"isCC":false,"pitch":78,"start":0.566112,"velocity":80},{"duration":0.015671,"isCC":false,"pitch":74,"start":0.576885,"velocity":87},{"duration":0.013712,"isCC":false,"pitch":78,"start":0.588639,"velocity":101},{"duration":0.013712,"isCC":false,"pitch":74,"start":0.598433,"velocity":86},{"duration":0.012733,"isCC":false,"pitch":67,"start":0.609207,"velocity":87},{"duration":0.013712,"isCC":false,"pitch":66,"start":0.615083,"velocity":86},{"duration":0.015671,"isCC":false,"pitch":74,"start":0.625857,"velocity":114},{"duration":0.014691,"isCC":false,"pitch":78,"start":0.636631,"velocity":94},{"duration":0.012733,"isCC":false,"pitch":74,"start":0.647405,"velocity":114},{"duration":0.025465,"isCC":false,"pitch":62,"start":0.657199,"velocity":58},{"duration":0.015671,"isCC":false,"pitch":66,"start":0.677767,"velocity":83},{"duration":0.01763,"isCC":false,"pitch":67,"start":0.68952,"velocity":94},{"duration":0.018609,"isCC":false,"pitch":71,"start":0.708129,"velocity":107},{"duration":0.022527,"isCC":false,"pitch":74,"start":0.722821,"velocity":114},{"duration":0.028404,"isCC":false,"pitch":78,"start":0.74143,"velocity":114},{"duration":0.024486,"isCC":false,"pitch":74,"start":0.763957,"velocity":65},{"duration":0.013712,"isCC":false,"pitch":71,"start":0.781587,"velocity":81},{"duration":0.012733,"isCC":false,"pitch":67,"start":0.791381,"velocity":72},{"duration":0.01665,"isCC":false,"pitch":66,"start":0.799216,"velocity":67},{"duration":0.015671,"isCC":false,"pitch":62,"start":0.812929,"velocity":77},{"duration":0.014691,"isCC":false,"pitch":66,"start":0.824682,"velocity":114},{"duration":0.013712,"isCC":false,"pitch":67,"start":0.834476,"velocity":107},{"duration":0.01763,"isCC":false,"pitch":71,"start":0.843291,"velocity":56},{"duration":0.020568,"isCC":false,"pitch":74,"start":0.851126,"velocity":66},{"duration":0.020568,"isCC":false,"pitch":78,"start":0.865818,"velocity":60},{"duration":0.022527,"isCC":false,"pitch":74,"start":0.87953,"velocity":87},{"duration":0.015671,"isCC":false,"pitch":71,"start":0.895201,"velocity":80},{"duration":0.019589,"isCC":false,"pitch":67,"start":0.905975,"velocity":53},{"duration":0.01763,"isCC":false,"pitch":66,"start":0.922625,"velocity":61},{"duration":0.023506,"isCC":false,"pitch":67,"start":0.937316,"velocity":82}],"preset":"e_guitar"},"happy_final":{"beats":16,"notes":[{"duration":0.048972,"isCC":false,"pitch":67,"start":0.471107,"velocity":72},{"duration":0.031342,"isCC":false,"pitch":66,"start":0.515181,"velocity":60},{"duration":0.03428,"isCC":false,"pitch":67,"start":0.542605,"velocity":51},{"duration":0.028404,"isCC":false,"pitch":69,"start":0.571988,"velocity":62},{"duration":0.025465,"isCC":false,"pitch":71,"start":0.599412,"velocity":58},{"duration":0.026445,"isCC":false,"pitch":69,"start":0.62096,"velocity":66},{"duration":0.021548,"isCC":false,"pitch":67,"start":0.643487,"velocity":72},{"duration":0.020568,"isCC":false,"pitch":66,"start":0.661117,"velocity":63},{"duration":0.026445,"isCC":false,"pitch":67,"start":0.678746,"velocity":70},{"duration":0.025465,"isCC":false,"pitch":66,"start":0.702253,"velocity":63},{"duration":0.026445,"isCC":false,"pitch":67,"start":0.725759,"velocity":70},{"duration":0.024486,"isCC":false,"pitch":69,"start":0.747307,"velocity":71},{"duration":0.027424,"isCC":false,"pitch":71,"start":0.769833,"velocity":61},{"duration":0.03428,"isCC":false,"pitch":69,"start":0.794319,"velocity":71},{"duration":0.03428,"isCC":false,"pitch":67,"start":0.823702,"velocity":78},{"duration":0.027424,"isCC":false,"pitch":66,"start":0.854065,"velocity":65},{"duration":0.100881,"isCC":false,"pitch":67,"start":0.882468,"velocity":58}],"preset":"happy"},"main_ep":{"beats":16,"notes":[{"duration":0.047297,"isCC":false,"pitch":55,"start":0.256757,"velocity":68},{"duration":0.047297,"isCC":false,"pitch":54,"start":0.304054,"velocity":73},{"duration":0.045608,"isCC":false,"pitch":55,"start":0.349662,"velocity":71},{"duration":0.043919,"isCC":false,"pitch":57,"start":0.388514,"velocity":80},{"duration":0.038851,"isCC":false,"pitch":59,"start":0.430743,"velocity":73},{"duration":0.043919,"isCC":false,"pitch":57,"start":0.462838,"velocity":70},{"duration":0.040541,"isCC":false,"pitch":55,"start":0.501689,"velocity":77},{"duration":0.035473,"isCC":false,"pitch":54,"start":0.537162,"velocity":70},{"duration":0.033784,"isCC":false,"pitch":55,"start":0.570946,"velocity":77},{"duration":0.033784,"isCC":false,"pitch":54,"start":0.601351,"velocity":72},{"duration":0.043919,"isCC":false,"pitch":55,"start":0.631757,"velocity":76},{"duration":0.035473,"isCC":false,"pitch":57,"start":0.663851,"velocity":61},{"duration":0.037162,"isCC":false,"pitch":59,"start":0.694257,"velocity":71},{"duration":0.047297,"isCC":false,"pitch":57,"start":0.724662,"velocity":36},{"duration":0.035473,"isCC":false,"pitch":55,"start":0.760135,"velocity":76},{"duration":0.043919,"isCC":false,"pitch":54,"start":0.793919,"velocity":68}],"preset":"e_piano"},"main_pad":{"beats":16,"notes":[{"duration":0.336717,"isCC":false,"pitch":54,"start":0.010152,"velocity":127},{"duration":0.336717,"isCC":false,"pitch":43,"start":0.011844,"velocity":127},{"duration":0.402707,"isCC":false,"pitch":47,"start":0.345178,"velocity":127},{"duration":0.406091,"isCC":false,"pitch":50,"start":0.345178,"velocity":127},{"duration":0.253807,"isCC":false,"pitch":43,"start":0.746193,"velocity":101},{"duration":0.250423,"isCC":false,"pitch":54,"start":0.749577,"velocity":68}],"preset":"glide_pad"},"my_song1":{"beats":16,"notes":[{"duration":0.414634,"isCC":false,"pitch":66,"start":0.006098,"velocity":83},{"duration":0.417683,"isCC":false,"pitch":55,"start":0.004573,"velocity":78},{"duration":0.417683,"isCC":false,"pitch":59,"start":0.004573,"velocity":82},{"duration":0.420732,"isCC":false,"pitch":62,"start":0.004573,"velocity":81},{"duration":0.07622,"isCC":false,"pitch":60,"start":0.440549,"velocity":80},{"duration":0.074695,"isCC":false,"pitch":57,"start":0.442073,"velocity":82},{"duration":0.077744,"isCC":false,"pitch":64,"start":0.440549,"velocity":72},{"duration":0.079268,"isCC":false,"pitch":67,"start":0.440549,"velocity":68},{"duration":0.469512,"isCC":false,"pitch":55,"start":0.530488,"velocity":120},{"duration":0.469512,"isCC":false,"pitch":59,"start":0.530488,"velocity":101},{"duration":0.467988,"isCC":false,"pitch":66,"start":0.532012,"velocity":127},{"duration":0.467988,"isCC":false,"pitch":62,"start":0.532012,"velocity":114}],"preset":"glide_pad2"},"my_song2":{"beats":16,"notes":[{"duration":0.378626,"isCC":false,"pitch":66,"start":0.01374,"velocity":127},{"duration":0.380153,"isCC":false,"pitch":59,"start":0.01374,"velocity":114},{"duration":0.380153,"isCC":false,"pitch":55,"start":0.015267,"velocity":107},{"duration":0.38626,"isCC":false,"pitch":62,"start":0.01374,"velocity":120},{"duration":0.096183,"isCC":false,"pitch":57,"start":0.40916,"velocity":120},{"duration":0.094656,"isCC":false,"pitch":67,"start":0.410687,"velocity":127},{"duration":0.096183,"isCC":false,"pitch":62,"start":0.410687,"velocity":114},{"duration":0.178626,"isCC":false,"pitch":55,"start":0.51145,"velocity":127},{"duration":0.181679,"isCC":false,"pitch":59,"start":0.509924,"velocity":114},{"duration":0.183206,"isCC":false,"pitch":64,"start":0.51145,"velocity":127},{"duration":0.074809,"isCC":false,"pitch":62,"start":0.70229,"velocity":120},{"duration":0.299237,"isCC":false,"pitch":57,"start":0.700763,"velocity":127},{"duration":0.29771,"isCC":false,"pitch":54,"start":0.70229,"velocity":127},{"duration":0.227481,"isCC":false,"pitch":64,"start":0.772519,"velocity":127}],"preset":"glide_pad2"},"my_song3":{"beats":16,"notes":[{"duration":0.20458,"isCC":false,"pitch":66,"start":0.007634,"velocity":127},{"duration":0.079389,"isCC":false,"pitch":67,"start":0.212214,"velocity":83},{"duration":0.083969,"isCC":false,"pitch":69,"start":0.285496,"velocity":82},{"duration":0.412214,"isCC":false,"pitch":59,"start":0.007634,"velocity":94},{"duration":0.418321,"isCC":false,"pitch":55,"start":0.006107,"velocity":75},{"duration":0.112977,"isCC":false,"pitch":71,"start":0.355725,"velocity":81},{"duration":0.464122,"isCC":false,"pitch":62,"start":0.007634,"velocity":120},{"duration":0.094656,"isCC":false,"pitch":61,"start":0.49771,"velocity":77},{"duration":0.172519,"isCC":false,"pitch":54,"start":0.468702,"velocity":53},{"duration":0.178626,"isCC":false,"pitch":57,"start":0.480916,"velocity":80},{"duration":0.039695,"isCC":false,"pitch":57,"start":0.676336,"velocity":120},{"duration":0.120611,"isCC":false,"pitch":61,"start":0.60916,"velocity":127},{"duration":0.375573,"isCC":false,"pitch":66,"start":0.51145,"velocity":73},{"duration":0.29313,"isCC":false,"pitch":54,"start":0.70687,"velocity":71},{"duration":0.247328,"isCC":false,"pitch":57,"start":0.752672,"velocity":114},{"duration":0.215267,"isCC":false,"pitch":61,"start":0.784733,"velocity":72},{"duration":0.10229,"isCC":false,"pitch":66,"start":0.89771,"velocity":52}],"preset":"glide_pad2"},"one_happy":{"beats":16,"notes":[{"duration":0.009788,"isCC":false,"pitch":43,"start":0.130506,"velocity":127},{"duration":0.011419,"isCC":false,"pitch":47,"start":0.146819,"velocity":127},{"duration":0.013051,"isCC":false,"pitch":50,"start":0.218597,"velocity":88},{"duration":0.009788,"isCC":false,"pitch":47,"start":0.34584,"velocity":120},{"duration":0.004894,"isCC":false,"pitch":54,"start":0.360522,"velocity":127},{"duration":0.014682,"isCC":false,"pitch":50,"start":0.376835,"velocity":120},{"duration":0.009788,"isCC":false,"pitch":46,"start":0.528548,"velocity":94},{"duration":0.016313,"isCC":false,"pitch":55,"start":0.54323,"velocity":86},{"duration":0.013051,"isCC":false,"pitch":54,"start":0.559543,"velocity":107},{"duration":0.011419,"isCC":false,"pitch":50,"start":0.618271,"velocity":81},{"duration":0.011419,"isCC":false,"pitch":57,"start":0.698206,"velocity":56},{"duration":0.013051,"isCC":false,"pitch":55,"start":0.717781,"velocity":55},{"duration":0.011419,"isCC":false,"pitch":52,"start":0.815661,"velocity":81},{"duration":0.016313,"isCC":false,"pitch":48,"start":0.828711,"velocity":78},{"duration":0.013051,"isCC":false,"pitch":50,"start":0.856444,"velocity":70},{"duration":0.013051,"isCC":false,"pitch":50,"start":0.920065,"velocity":17},{"duration":0.017945,"isCC":false,"pitch":43,"start":0.949429,"velocity":78}],"preset":"happy"},"pre_buzz":{"beats":8,"notes":[{"duration":0.099125,"isCC":false,"pitch":54,"start":0.323615,"velocity":60},{"duration":0.113703,"isCC":false,"pitch":50,"start":0.411079,"velocity":73},{"duration":0.055394,"isCC":false,"pitch":46,"start":0.516035,"velocity":114},{"duration":0.067055,"isCC":false,"pitch":43,"start":0.574344,"velocity":78},{"duration":0.020408,"isCC":false,"pitch":40,"start":0.655977,"velocity":32},{"duration":0.061224,"isCC":false,"pitch":38,"start":0.650146,"velocity":47},{"duration":0.040816,"isCC":false,"pitch":43,"start":0.699708,"velocity":120},{"duration":0.03207,"isCC":false,"pitch":46,"start":0.746356,"velocity":127},{"duration":0.040816,"isCC":false,"pitch":50,"start":0.778426,"velocity":80},{"duration":0.03207,"isCC":false,"pitch":52,"start":0.810496,"velocity":94},{"duration":0.034985,"isCC":false,"pitch":54,"start":0.842566,"velocity":127},{"duration":0.029155,"isCC":false,"pitch":55,"start":0.874636,"velocity":94},{"duration":0.026239,"isCC":false,"pitch":57,"start":0.897959,"velocity":88},{"duration":0.078717,"isCC":false,"pitch":59,"start":0.918367,"velocity":94},{"duration":0.037901,"isCC":false,"pitch":60,"start":0.962099,"velocity":37}],"preset":"evil_buzz"},"scale":{"beats":8,"notes":[{"duration":0.1125,"isCC":false,"pitch":60,"start":0.025,"velocity":127},{"duration":0.125,"isCC":false,"pitch":62,"start":0.141667,"velocity":94},{"duration":0.129167,"isCC":false,"pitch":64,"start":0.258333,"velocity":88},{"duration":0.141667,"isCC":false,"pitch":65,"start":0.383333,"velocity":101},{"duration":0.1375,"isCC":false,"pitch":67,"start":0.516667,"velocity":86},{"duration":0.1375,"isCC":false,"pitch":65,"start":0.641667,"velocity":101},{"duration":0.133333,"isCC":false,"pitch":64,"start":0.775,"velocity":120},{"duration":0.1,"isCC":false,"pitch":62,"start":0.9,"velocity":127}],"preset":"e_piano"},"scale2":{"beats":16,"notes":[{"duration":0.115635,"isCC":false,"pitch":72,"start":0.029316,"velocity":127},{"duration":0.117264,"isCC":false,"pitch":71,"start":0.138436,"velocity":120},{"duration":0.115635,"isCC":false,"pitch":69,"start":0.249186,"velocity":114},{"duration":0.115635,"isCC":false,"pitch":67,"start":0.358306,"velocity":120},{"duration":0.109121,"isCC":false,"pitch":66,"start":0.470684,"velocity":127},{"duration":0.144951,"isCC":false,"pitch":67,"start":0.578176,"velocity":127},{"duration":0.125407,"isCC":false,"pitch":69,"start":0.698697,"velocity":127},{"duration":0.125407,"isCC":false,"pitch":71,"start":0.820847,"velocity":120}],"preset":"e_piano"},"snare8s":{"beats":8,"notes":[{"duration":0.05,"isCC":false,"pitch":60,"start":0.008333,"velocity":127},{"duration":0.058333,"isCC":false,"pitch":60,"start":0.133333,"velocity":114},{"duration":0.054167,"isCC":false,"pitch":60,"start":0.258333,"velocity":101},{"duration":0.054167,"isCC":false,"pitch":60,"start":0.383333,"velocity":101},{"duration":0.058333,"isCC":false,"pitch":60,"start":0.5,"velocity":114},{"duration":0.05,"isCC":false,"pitch":60,"start":0.625,"velocity":114},{"duration":0.045833,"isCC":false,"pitch":60,"start":0.75,"velocity":114},{"duration":0.05,"isCC":false,"pitch":60,"start":0.866667,"velocity":107}],"preset":"basic_snare"},"snare_backbeat":{"beats":8,"notes":[{"duration":0.190608,"isCC":false,"pitch":60,"start":0.229282,"velocity":83},{"duration":0.11326,"isCC":false,"pitch":60,"start":0.671271,"velocity":81}],"preset":"snare_rev"},"the_call":{"beats":8,"notes":[{"duration":0.016827,"isCC":false,"pitch":57,"start":0.043269,"velocity":88},{"duration":0.019231,"isCC":false,"pitch":67,"start":0.043269,"velocity":114},{"duration":0.026442,"isCC":false,"pitch":67,"start":0.079327,"velocity":120},{"duration":0.038462,"isCC":false,"pitch":57,"start":0.076923,"velocity":114},{"duration":0.016827,"isCC":false,"pitch":55,"start":0.259615,"velocity":82},{"duration":0.014423,"isCC":false,"pitch":65,"start":0.262019,"velocity":83},{"duration":0.021635,"isCC":false,"pitch":65,"start":0.295673,"velocity":94},{"duration":0.024038,"isCC":false,"pitch":55,"start":0.295673,"velocity":114},{"duration":0.016827,"isCC":false,"pitch":67,"start":0.475962,"velocity":85},{"duration":0.019231,"isCC":false,"pitch":57,"start":0.475962,"velocity":80},{"duration":0.03125,"isCC":false,"pitch":67,"start":0.512019,"velocity":107},{"duration":0.036058,"isCC":false,"pitch":57,"start":0.512019,"velocity":87},{"duration":0.019231,"isCC":false,"pitch":65,"start":0.793269,"velocity":80},{"duration":0.021635,"isCC":false,"pitch":55,"start":0.793269,"velocity":70}],"preset":"call"},"the_call_bass":{"beats":8,"notes":[{"duration":0.049724,"isCC":false,"pitch":43,"start":0.077348,"velocity":127},{"duration":0.060773,"isCC":false,"pitch":31,"start":0.124309,"velocity":85},{"duration":0.058011,"isCC":false,"pitch":43,"start":0.179558,"velocity":73},{"duration":0.060773,"isCC":false,"pitch":31,"start":0.232044,"velocity":73},{"duration":0.052486,"isCC":false,"pitch":43,"start":0.28453,"velocity":66},{"duration":0.058011,"isCC":false,"pitch":31,"start":0.328729,"velocity":72},{"duration":0.041436,"isCC":false,"pitch":43,"start":0.375691,"velocity":73},{"duration":0.052486,"isCC":false,"pitch":31,"start":0.417127,"velocity":75},{"duration":0.035912,"isCC":false,"pitch":43,"start":0.461326,"velocity":75},{"duration":0.038674,"isCC":false,"pitch":31,"start":0.497238,"velocity":67},{"duration":0.030387,"isCC":false,"pitch":43,"start":0.530387,"velocity":67},{"duration":0.038674,"isCC":false,"pitch":31,"start":0.560773,"velocity":60},{"duration":0.027624,"isCC":false,"pitch":43,"start":0.593923,"velocity":60},{"duration":0.033149,"isCC":false,"pitch":31,"start":0.627072,"velocity":63},{"duration":0.027624,"isCC":false,"pitch":43,"start":0.654696,"velocity":67},{"duration":0.033149,"isCC":false,"pitch":31,"start":0.690608,"velocity":62},{"duration":0.027624,"isCC":false,"pitch":43,"start":0.723757,"velocity":52},{"duration":0.038674,"isCC":false,"pitch":31,"start":0.754144,"velocity":46},{"duration":0.024862,"isCC":false,"pitch":43,"start":0.790055,"velocity":55},{"duration":0.033149,"isCC":false,"pitch":31,"start":0.820442,"velocity":52},{"duration":0.030387,"isCC":false,"pitch":43,"start":0.850829,"velocity":67},{"duration":0.030387,"isCC":false,"pitch":31,"start":0.88674,"velocity":62},{"duration":0.024862,"isCC":false,"pitch":43,"start":0.917127,"velocity":68},{"duration":0.027624,"isCC":false,"pitch":31,"start":0.947514,"velocity":68},{"duration":0.022099,"isCC":false,"pitch":43,"start":0.977901,"velocity":56}],"preset":"bass"},"the_call_end":{"beats":8,"notes":[{"duration":0.074586,"isCC":false,"pitch":55,"start":0.071823,"velocity":85},{"duration":0.069061,"isCC":false,"pitch":54,"start":0.140884,"velocity":78},{"duration":0.074586,"isCC":false,"pitch":55,"start":0.20442,"velocity":80},{"duration":0.074586,"isCC":false,"pitch":57,"start":0.265193,"velocity":80},{"duration":0.069061,"isCC":false,"pitch":59,"start":0.334254,"velocity":83},{"duration":0.077348,"isCC":false,"pitch":57,"start":0.39779,"velocity":85},{"duration":0.08011,"isCC":false,"pitch":55,"start":0.458564,"velocity":101},{"duration":0.063536,"isCC":false,"pitch":54,"start":0.527624,"velocity":73},{"duration":0.071823,"isCC":false,"pitch":55,"start":0.588398,"velocity":87},{"duration":0.063536,"isCC":false,"pitch":54,"start":0.651934,"velocity":66},{"duration":0.074586,"isCC":false,"pitch":55,"start":0.707182,"velocity":78},{"duration":0.077348,"isCC":false,"pitch":57,"start":0.767956,"velocity":85},{"duration":0.107735,"isCC":false,"pitch":59,"start":0.837017,"velocity":83}],"preset":"happy"},"the_call_g":{"beats":8,"notes":[{"duration":0.016575,"isCC":false,"pitch":72,"start":0.168508,"velocity":81},{"duration":0.013812,"isCC":false,"pitch":72,"start":0.207182,"velocity":88},{"duration":0.016575,"isCC":false,"pitch":71,"start":0.229282,"velocity":107},{"duration":0.016575,"isCC":false,"pitch":70,"start":0.273481,"velocity":127},{"duration":0.013812,"isCC":false,"pitch":68,"start":0.334254,"velocity":66},{"duration":0.013812,"isCC":false,"pitch":68,"start":0.392265,"velocity":41},{"duration":0.013812,"isCC":false,"pitch":66,"start":0.444751,"velocity":68},{"duration":0.022099,"isCC":false,"pitch":72,"start":0.494475,"velocity":101},{"duration":0.013812,"isCC":false,"pitch":71,"start":0.538674,"velocity":67},{"duration":0.019337,"isCC":false,"pitch":70,"start":0.577348,"velocity":127},{"duration":0.013812,"isCC":false,"pitch":72,"start":0.737569,"velocity":33},{"duration":0.019337,"isCC":false,"pitch":72,"start":0.776243,"velocity":85},{"duration":0.016575,"isCC":false,"pitch":72,"start":0.809392,"velocity":81},{"duration":0.027624,"isCC":false,"pitch":71,"start":0.814917,"velocity":127},{"duration":0.016575,"isCC":false,"pitch":70,"start":0.845304,"velocity":127},{"duration":0.013812,"isCC":false,"pitch":68,"start":0.883978,"velocity":72},{"duration":0.019337,"isCC":false,"pitch":66,"start":0.930939,"velocity":76}],"preset":"e_guitar"},"the_call_p":{"beats":8,"notes":[{"duration":0.027624,"isCC":false,"pitch":43,"start":0.049724,"velocity":127},{"duration":0.209945,"isCC":false,"pitch":58,"start":0.104972,"velocity":81},{"duration":0.212707,"isCC":false,"pitch":43,"start":0.527624,"velocity":86}],"preset":"glide_pad"},"the_call_s":{"beats":8,"notes":[{"duration":0.024862,"isCC":false,"pitch":60,"start":0.176796,"velocity":127},{"duration":0.016575,"isCC":false,"pitch":60,"start":0.361878,"velocity":127},{"duration":0.046961,"isCC":false,"pitch":60,"start":0.39779,"velocity":127},{"duration":0.013812,"isCC":false,"pitch":60,"start":0.519337,"velocity":127},{"duration":0.01105,"isCC":false,"pitch":60,"start":0.624309,"velocity":127},{"duration":0.016575,"isCC":false,"pitch":60,"start":0.643646,"velocity":101},{"duration":0.085635,"isCC":false,"pitch":60,"start":0.696133,"velocity":127},{"duration":0.044199,"isCC":false,"pitch":60,"start":0.81768,"velocity":127},{"duration":0.019337,"isCC":false,"pitch":60,"start":0.906077,"velocity":107}],"preset":"basic_snare"}}}
